<svg xmlns="http://www.w3.org/2000/svg" width="104.202" height="37" viewBox="0 0 104.202 37"><defs><style>.a{fill:#f75c57;fill-rule:evenodd;}</style></defs><path class="a" d="M98.814.931A4.891,4.891,0,0,0,95.71,0a5.269,5.269,0,0,0-3.546,1.218,3.822,3.822,0,0,0-1.421,3.026A3.649,3.649,0,0,0,91.83,7.062a4.64,4.64,0,0,0,3.259,1.011,5.106,5.106,0,0,0,3.57-1.218A4.206,4.206,0,0,0,100,3.571,3.157,3.157,0,0,0,98.814.931ZM7.14,32.964a3.653,3.653,0,0,0,1.421,2.794A6.079,6.079,0,0,0,12.676,37a7.343,7.343,0,0,0,4.915-1.759,14.029,14.029,0,0,0,5.822-1.27,10.926,10.926,0,0,0,2.231-1.519,7.6,7.6,0,0,0,.742,1.081A6.277,6.277,0,0,0,31.5,35.858q4.087,0,6.777-4.347A7.106,7.106,0,0,0,40.431,34.7a4.819,4.819,0,0,0,3.132,1.166,7.673,7.673,0,0,0,4.6-1.811A23.311,23.311,0,0,0,49.992,32.5a8.554,8.554,0,0,0,.372,1.287,2.815,2.815,0,0,0,2.756,2.067A2.978,2.978,0,0,0,55.473,35a8.033,8.033,0,0,0,1.321-3.284,45.177,45.177,0,0,1,1.783-5.692,26.731,26.731,0,0,1,2.3-4.761q1.19-1.863,1.966-1.863.569,0,.569.828,0,1.035-.414,4.347a44.776,44.776,0,0,0-.517,5.692,8.449,8.449,0,0,0,.855,3.96A2.74,2.74,0,0,0,65.9,35.862a3.105,3.105,0,0,0,2.407-.828,7.893,7.893,0,0,0,1.321-3.312,37.171,37.171,0,0,1,2.018-6,25.528,25.528,0,0,1,2.483-4.578q1.242-1.734,1.914-1.735.569,0,.569.828a26.79,26.79,0,0,1-.672,4.5,32.315,32.315,0,0,0-.724,5.175,6.493,6.493,0,0,0,1.345,4.426,5.029,5.029,0,0,0,3.984,1.525,10.038,10.038,0,0,0,5.822-1.76q.73-.5,1.433-1.083a4.723,4.723,0,0,0,.827,1.355A5.028,5.028,0,0,0,92.609,35.9a10.047,10.047,0,0,0,5.822-1.76,22.987,22.987,0,0,0,4.787-4.5,4.758,4.758,0,0,0,.983-3.208,3.241,3.241,0,0,0-.39-1.708,1.2,1.2,0,0,0-1.062-.621,1.816,1.816,0,0,0-1.4.724,41.548,41.548,0,0,1-3.8,4.116,4.043,4.043,0,0,1-2.456,1.266,1.412,1.412,0,0,1-.869-.255,1.033,1.033,0,0,0-.214-.217l-.023-.019a1.43,1.43,0,0,1-.129-.2c-.512-1.314.845-7.041,2.193-12.728h0v0c.2-.839.4-1.677.59-2.5a8.5,8.5,0,0,0,.1-.983q0-1.806-2.225-1.808a5.624,5.624,0,0,0-3.077.649,3.7,3.7,0,0,0-1.373,2.249Q89.007,18.7,88.278,23.55l-.132-.022a4.115,4.115,0,0,0-.059.551,4.531,4.531,0,0,1-.082.695q-.2,1.044-.349,1.91a28.757,28.757,0,0,1-2.169,2.22,4.034,4.034,0,0,1-2.456,1.266q-1.5,0-1.5-2.07a35.933,35.933,0,0,1,.983-5.951,41.6,41.6,0,0,0,1.138-7.3q0-3.364-3.363-3.364-2.742,0-5.9,2.9t-5.743,9.263q.155-.931.569-2.794a32.8,32.8,0,0,0,.983-6,3.682,3.682,0,0,0-.752-2.536,3.327,3.327,0,0,0-2.559-.828,7,7,0,0,0-3.853,1.373,15.711,15.711,0,0,0-3.984,4.164,28,28,0,0,0-3.335,6.831,35.891,35.891,0,0,1,.517-3.805q.31-1.521.828-3.595a19.73,19.73,0,0,0,.776-3.726,1.069,1.069,0,0,0-.414-.983,2.915,2.915,0,0,0-1.449-.259,5.377,5.377,0,0,0-2.973.7,3.894,3.894,0,0,0-1.528,2.2A41.872,41.872,0,0,0,49.57,26.237,33.592,33.592,0,0,1,47.029,28.9a3.928,3.928,0,0,1-2.38,1.266,1.243,1.243,0,0,1-1.007-.466,1.9,1.9,0,0,1-.386-1.242,50.228,50.228,0,0,1,1.19-8.28,38.833,38.833,0,0,0,.776-5.175q0-1.811-2.535-1.811a12.143,12.143,0,0,0-2.276.207,3.774,3.774,0,0,0-.648-1.577,2.019,2.019,0,0,0-1.528-.442,11.488,11.488,0,0,0-6.75,2.253,16.313,16.313,0,0,0-5.1,5.951,16.809,16.809,0,0,0-1.911,7.5,11.9,11.9,0,0,1-3.932,2.924,14.024,14.024,0,0,0,.1-1.449,6.732,6.732,0,0,0-.855-3.339,33.148,33.148,0,0,0-2.508-3.7A19.046,19.046,0,0,1,15.6,19.2a3.415,3.415,0,0,1-.545-1.708,7.38,7.38,0,0,1,.931-3.157,7.48,7.48,0,0,0,.569-1.345,3.809,3.809,0,0,0,.207-.983.863.863,0,0,0-.569-.828,5.426,5.426,0,0,0-2.018-.259q-3.1,0-4.087,2.277-1.138,2.7-2.328,5.2T5.691,22.407A66.877,66.877,0,0,1,1.4,28.2l-.673.828A2.951,2.951,0,0,0,0,30.946a2.172,2.172,0,0,0,.517,1.476,1.689,1.689,0,0,0,1.345.6,2.769,2.769,0,0,0,1.966-.931,38.3,38.3,0,0,0,3.439-3.829,33.807,33.807,0,0,0,3.184-5.071q.724.828,1.552,1.939a12.668,12.668,0,0,1,1.373,2.3,6.666,6.666,0,0,1,.6,2.536c-.31-.031-.769-.093-1.373-.179a11.445,11.445,0,0,0-1.58-.131,3.928,3.928,0,0,0-2.9.983A3.183,3.183,0,0,0,7.14,32.964Zm29.9-7.245a8.728,8.728,0,0,1-1.5,3.571,2.839,2.839,0,0,1-2.173,1.345,2.194,2.194,0,0,1-1.783-.776,3.647,3.647,0,0,1-.648-2.38,14.024,14.024,0,0,1,1.087-5.485,11,11,0,0,1,2.925-4.164A6.257,6.257,0,0,1,38.958,16.2Z"/></svg>